Coordinates
version=1
nRows=62
nColumns=21
inDegrees=no
endheader
time	ra_wr_s_p	ra_wr_e_f	ra_cmc1_ad_ab	ra_cmc1_f_e	ra_mcp1_f_e	ra_ip1_f_e	ra_mcp2_e_f	ra_pip2_e_f	ra_dip2_e_f	ra_mcp3_e_f	ra_pip3_e_f	ra_dip3_e_f	ra_mcp4_e_f	ra_pip4_e_f	ra_dip4_e_f	ra_mcp5_e_f	ra_pip5_e_f	ra_dip5_e_f	ra_el_e_f	ra_wr_ad_ab
0.125000	1.117040	0.005310	0.405603	0.405603	-0.365029	-0.730057	0.730057	0.973409	0.730057	0.730057	0.973409	0.730057	0.730057	0.973409	0.730057	0.730057	0.973409	0.730057	1.570796	0.001000
0.126000	1.117040	0.003592	0.404958	0.404958	-0.364449	-0.728897	0.728897	0.971863	0.728897	0.728897	0.971863	0.728897	0.728897	0.971863	0.728897	0.728897	0.971863	0.728897	1.570796	0.001000
0.127000	1.117040	0.001849	0.404304	0.404304	-0.363860	-0.727720	0.727720	0.970294	0.727720	0.727720	0.970294	0.727720	0.727720	0.970294	0.727720	0.727720	0.970294	0.727720	1.570796	0.001000
0.128000	1.117040	0.000080	0.403641	0.403641	-0.363263	-0.726526	0.726526	0.968701	0.726526	0.726526	0.968701	0.726526	0.726526	0.968701	0.726526	0.726526	0.968701	0.726526	1.570796	0.001000
0.129000	1.117040	-0.001715	0.402968	0.402968	-0.362657	-0.725315	0.725315	0.967086	0.725315	0.725315	0.967086	0.725315	0.725315	0.967086	0.725315	0.725315	0.967086	0.725315	1.570796	0.001000
0.130000	1.117040	-0.003536	0.402285	0.402285	-0.362043	-0.724086	0.724086	0.965447	0.724086	0.724086	0.965447	0.724086	0.724086	0.965447	0.724086	0.724086	0.965447	0.724086	1.570796	0.001000
0.131000	1.117040	-0.005383	0.401593	0.401593	-0.361419	-0.722839	0.722839	0.963785	0.722839	0.722839	0.963785	0.722839	0.722839	0.963785	0.722839	0.722839	0.963785	0.722839	1.570796	0.001000
0.132000	1.117040	-0.007256	0.400890	0.400890	-0.360787	-0.721574	0.721574	0.962099	0.721574	0.721574	0.962099	0.721574	0.721574	0.962099	0.721574	0.721574	0.962099	0.721574	1.570796	0.001000
0.133000	1.117040	-0.009156	0.400177	0.400177	-0.360146	-0.720292	0.720292	0.960389	0.720292	0.720292	0.960389	0.720292	0.720292	0.960389	0.720292	0.720292	0.960389	0.720292	1.570796	0.001000
0.134000	1.117040	-0.011083	0.399455	0.399455	-0.359496	-0.718991	0.718991	0.958655	0.718991	0.718991	0.958655	0.718991	0.718991	0.958655	0.718991	0.718991	0.958655	0.718991	1.570796	0.001000
0.135000	1.117040	-0.013037	0.398722	0.398722	-0.358836	-0.717672	0.717672	0.956896	0.717672	0.717672	0.956896	0.717672	0.717672	0.956896	0.717672	0.717672	0.956896	0.717672	1.570796	0.001000
0.136000	1.117040	-0.015019	0.397979	0.397979	-0.358167	-0.716335	0.716335	0.955113	0.716335	0.716335	0.955113	0.716335	0.716335	0.955113	0.716335	0.716335	0.955113	0.716335	1.570796	0.001000
0.137000	1.117040	-0.017028	0.397226	0.397226	-0.357489	-0.714979	0.714979	0.953305	0.714979	0.714979	0.953305	0.714979	0.714979	0.953305	0.714979	0.714979	0.953305	0.714979	1.570796	0.001000
0.138000	1.117040	-0.019064	0.396462	0.396462	-0.356802	-0.713604	0.713604	0.951472	0.713604	0.713604	0.951472	0.713604	0.713604	0.951472	0.713604	0.713604	0.951472	0.713604	1.570796	0.001000
0.139000	1.117040	-0.021129	0.395688	0.395688	-0.356105	-0.712210	0.712210	0.949614	0.712210	0.712210	0.949614	0.712210	0.712210	0.949614	0.712210	0.712210	0.949614	0.712210	1.570796	0.001000
0.140000	1.117040	-0.023222	0.394903	0.394903	-0.355399	-0.710798	0.710798	0.947730	0.710798	0.710798	0.947730	0.710798	0.710798	0.947730	0.710798	0.710798	0.947730	0.710798	1.570796	0.001000
0.141000	1.117040	-0.025343	0.394107	0.394107	-0.354683	-0.709366	0.709366	0.945821	0.709366	0.709366	0.945821	0.709366	0.709366	0.945821	0.709366	0.709366	0.945821	0.709366	1.570796	0.001000
0.142000	1.117040	-0.027494	0.393301	0.393301	-0.353957	-0.707914	0.707914	0.943886	0.707914	0.707914	0.943886	0.707914	0.707914	0.943886	0.707914	0.707914	0.943886	0.707914	1.570796	0.001000
0.143000	1.117040	-0.029673	0.392484	0.392484	-0.353222	-0.706443	0.706443	0.941924	0.706443	0.706443	0.941924	0.706443	0.706443	0.941924	0.706443	0.706443	0.941924	0.706443	1.570796	0.001000
0.144000	1.117040	-0.031881	0.391655	0.391655	-0.352476	-0.704953	0.704953	0.939937	0.704953	0.704953	0.939937	0.704953	0.704953	0.939937	0.704953	0.704953	0.939937	0.704953	1.570796	0.001000
0.145000	1.117040	-0.034119	0.390816	0.390816	-0.351721	-0.703442	0.703442	0.937923	0.703442	0.703442	0.937923	0.703442	0.703442	0.937923	0.703442	0.703442	0.937923	0.703442	1.570796	0.001000
0.146000	1.117040	-0.036386	0.389966	0.389966	-0.350956	-0.701912	0.701912	0.935883	0.701912	0.701912	0.935883	0.701912	0.701912	0.935883	0.701912	0.701912	0.935883	0.701912	1.570796	0.001000
0.147000	1.117040	-0.038683	0.389105	0.389105	-0.350181	-0.700362	0.700362	0.933815	0.700362	0.700362	0.933815	0.700362	0.700362	0.933815	0.700362	0.700362	0.933815	0.700362	1.570796	0.001000
0.148000	1.117040	-0.041010	0.388232	0.388232	-0.349395	-0.698791	0.698791	0.931721	0.698791	0.698791	0.931721	0.698791	0.698791	0.931721	0.698791	0.698791	0.931721	0.698791	1.570796	0.001000
0.149000	1.117040	-0.043367	0.387348	0.387348	-0.348600	-0.697200	0.697200	0.929600	0.697200	0.697200	0.929600	0.697200	0.697200	0.929600	0.697200	0.697200	0.929600	0.697200	1.570796	0.001000
0.150000	1.117040	-0.045754	0.386453	0.386453	-0.347794	-0.695588	0.695588	0.927451	0.695588	0.695588	0.927451	0.695588	0.695588	0.927451	0.695588	0.695588	0.927451	0.695588	1.570796	0.001000
0.151000	1.117040	-0.048172	0.385546	0.385546	-0.346978	-0.693956	0.693956	0.925275	0.693956	0.693956	0.925275	0.693956	0.693956	0.925275	0.693956	0.693956	0.925275	0.693956	1.570796	0.001000
0.152000	1.117040	-0.050621	0.384627	0.384627	-0.346151	-0.692303	0.692303	0.923071	0.692303	0.692303	0.923071	0.692303	0.692303	0.923071	0.692303	0.692303	0.923071	0.692303	1.570796	0.001000
0.153000	1.117040	-0.053101	0.383697	0.383697	-0.345315	-0.690629	0.690629	0.920839	0.690629	0.690629	0.920839	0.690629	0.690629	0.920839	0.690629	0.690629	0.920839	0.690629	1.570796	0.001000
0.154000	1.117040	-0.055612	0.382756	0.382756	-0.344467	-0.688934	0.688934	0.918579	0.688934	0.688934	0.918579	0.688934	0.688934	0.918579	0.688934	0.688934	0.918579	0.688934	1.570796	0.001000
0.155000	1.117040	-0.058155	0.381802	0.381802	-0.343609	-0.687218	0.687218	0.916290	0.687218	0.687218	0.916290	0.687218	0.687218	0.916290	0.687218	0.687218	0.916290	0.687218	1.570796	0.001000
0.156000	1.117040	-0.060729	0.380837	0.380837	-0.342740	-0.685480	0.685480	0.913974	0.685480	0.685480	0.913974	0.685480	0.685480	0.913974	0.685480	0.685480	0.913974	0.685480	1.570796	0.001000
0.157000	1.117040	-0.063335	0.379860	0.379860	-0.341861	-0.683721	0.683721	0.911629	0.683721	0.683721	0.911629	0.683721	0.683721	0.911629	0.683721	0.683721	0.911629	0.683721	1.570796	0.001000
0.158000	1.117040	-0.065973	0.378871	0.378871	-0.340970	-0.681941	0.681941	0.909255	0.681941	0.681941	0.909255	0.681941	0.681941	0.909255	0.681941	0.681941	0.909255	0.681941	1.570796	0.001000
0.159000	1.117040	-0.068642	0.377869	0.377869	-0.340069	-0.680139	0.680139	0.906852	0.680139	0.680139	0.906852	0.680139	0.680139	0.906852	0.680139	0.680139	0.906852	0.680139	1.570796	0.001000
0.160000	1.117040	-0.071344	0.376856	0.376856	-0.339158	-0.678315	0.678315	0.904420	0.678315	0.678315	0.904420	0.678315	0.678315	0.904420	0.678315	0.678315	0.904420	0.678315	1.570796	0.001000
0.161000	1.117040	-0.074079	0.375831	0.375831	-0.338235	-0.676469	0.676469	0.901959	0.676469	0.676469	0.901959	0.676469	0.676469	0.901959	0.676469	0.676469	0.901959	0.676469	1.570796	0.001000
0.162000	1.117040	-0.076846	0.374793	0.374793	-0.337301	-0.674602	0.674602	0.899469	0.674602	0.674602	0.899469	0.674602	0.674602	0.899469	0.674602	0.674602	0.899469	0.674602	1.570796	0.001000
0.163000	1.117040	-0.079645	0.373743	0.373743	-0.336356	-0.672712	0.672712	0.896949	0.672712	0.672712	0.896949	0.672712	0.672712	0.896949	0.672712	0.672712	0.896949	0.672712	1.570796	0.001000
0.164000	1.117040	-0.082478	0.372681	0.372681	-0.335400	-0.670800	0.670800	0.894400	0.670800	0.670800	0.894400	0.670800	0.670800	0.894400	0.670800	0.670800	0.894400	0.670800	1.570796	0.001000
0.165000	1.117040	-0.085343	0.371606	0.371606	-0.334433	-0.668866	0.668866	0.891821	0.668866	0.668866	0.891821	0.668866	0.668866	0.891821	0.668866	0.668866	0.891821	0.668866	1.570796	0.001000
0.166000	1.117040	-0.088242	0.370519	0.370519	-0.333455	-0.666909	0.666909	0.889212	0.666909	0.666909	0.889212	0.666909	0.666909	0.889212	0.666909	0.666909	0.889212	0.666909	1.570796	0.001000
0.167000	1.117040	-0.091174	0.369420	0.369420	-0.332465	-0.664930	0.664930	0.886574	0.664930	0.664930	0.886574	0.664930	0.664930	0.886574	0.664930	0.664930	0.886574	0.664930	1.570796	0.001000
0.168000	1.117040	-0.094139	0.368308	0.368308	-0.331464	-0.662929	0.662929	0.883905	0.662929	0.662929	0.883905	0.662929	0.662929	0.883905	0.662929	0.662929	0.883905	0.662929	1.570796	0.001000
0.169000	1.117040	-0.097137	0.367183	0.367183	-0.330452	-0.660905	0.660905	0.881206	0.660905	0.660905	0.881206	0.660905	0.660905	0.881206	0.660905	0.660905	0.881206	0.660905	1.570796	0.001000
0.170000	1.117040	-0.100169	0.366046	0.366046	-0.329429	-0.658858	0.658858	0.878477	0.658858	0.658858	0.878477	0.658858	0.658858	0.878477	0.658858	0.658858	0.878477	0.658858	1.570796	0.001000
0.171000	1.117040	-0.103235	0.364897	0.364897	-0.328394	-0.656789	0.656789	0.875718	0.656789	0.656789	0.875718	0.656789	0.656789	0.875718	0.656789	0.656789	0.875718	0.656789	1.570796	0.001000
0.172000	1.117040	-0.106335	0.363734	0.363734	-0.327348	-0.654697	0.654697	0.872929	0.654697	0.654697	0.872929	0.654697	0.654697	0.872929	0.654697	0.654697	0.872929	0.654697	1.570796	0.001000
0.173000	1.117040	-0.109468	0.362559	0.362559	-0.326291	-0.652582	0.652582	0.870109	0.652582	0.652582	0.870109	0.652582	0.652582	0.870109	0.652582	0.652582	0.870109	0.652582	1.570796	0.001000
0.174000	1.117040	-0.112635	0.361371	0.361371	-0.325222	-0.650444	0.650444	0.867258	0.650444	0.650444	0.867258	0.650444	0.650444	0.867258	0.650444	0.650444	0.867258	0.650444	1.570796	0.001000
0.175000	1.117040	-0.115836	0.360171	0.360171	-0.324142	-0.648283	0.648283	0.864377	0.648283	0.648283	0.864377	0.648283	0.648283	0.864377	0.648283	0.648283	0.864377	0.648283	1.570796	0.001000
0.176000	1.117040	-0.119071	0.358958	0.358958	-0.323050	-0.646099	0.646099	0.861466	0.646099	0.646099	0.861466	0.646099	0.646099	0.861466	0.646099	0.646099	0.861466	0.646099	1.570796	0.001000
0.177000	1.117040	-0.122340	0.357732	0.357732	-0.321946	-0.643893	0.643893	0.858524	0.643893	0.643893	0.858524	0.643893	0.643893	0.858524	0.643893	0.643893	0.858524	0.643893	1.570796	0.001000
0.178000	1.117040	-0.125643	0.356493	0.356493	-0.320832	-0.641663	0.641663	0.855551	0.641663	0.641663	0.855551	0.641663	0.641663	0.855551	0.641663	0.641663	0.855551	0.641663	1.570796	0.001000
0.179000	1.117040	-0.128980	0.355242	0.355242	-0.319705	-0.639411	0.639411	0.852548	0.639411	0.639411	0.852548	0.639411	0.639411	0.852548	0.639411	0.639411	0.852548	0.639411	1.570796	0.001000
0.180000	1.117040	-0.132352	0.353977	0.353977	-0.318568	-0.637135	0.637135	0.849513	0.637135	0.637135	0.849513	0.637135	0.637135	0.849513	0.637135	0.637135	0.849513	0.637135	1.570796	0.001000
0.181000	1.117040	-0.135757	0.352700	0.352700	-0.317418	-0.634836	0.634836	0.846449	0.634836	0.634836	0.846449	0.634836	0.634836	0.846449	0.634836	0.634836	0.846449	0.634836	1.570796	0.001000
0.182000	1.117040	-0.139196	0.351411	0.351411	-0.316257	-0.632515	0.632515	0.843353	0.632515	0.632515	0.843353	0.632515	0.632515	0.843353	0.632515	0.632515	0.843353	0.632515	1.570796	0.001000
0.183000	1.117040	-0.142670	0.350108	0.350108	-0.315085	-0.630170	0.630170	0.840227	0.630170	0.630170	0.840227	0.630170	0.630170	0.840227	0.630170	0.630170	0.840227	0.630170	1.570796	0.001000
0.184000	1.117040	-0.146177	0.348793	0.348793	-0.313901	-0.627803	0.627803	0.837071	0.627803	0.627803	0.837071	0.627803	0.627803	0.837071	0.627803	0.627803	0.837071	0.627803	1.570796	0.001000
0.185000	1.117040	-0.149718	0.347465	0.347465	-0.312706	-0.625413	0.625413	0.833883	0.625413	0.625413	0.833883	0.625413	0.625413	0.833883	0.625413	0.625413	0.833883	0.625413	1.570796	0.001000
0.186000	1.117040	-0.153294	0.346124	0.346124	-0.311500	-0.622999	0.622999	0.830666	0.622999	0.622999	0.830666	0.622999	0.622999	0.830666	0.622999	0.622999	0.830666	0.622999	1.570796	0.001000
